<svg version="1.1" style="position: absolute; width: 853px; height: 400px; left: 0.399994px;"><desc>JavaScript chart by amCharts 3.4.6</desc><g><path stroke-opacity="0" stroke-width="1" fill-opacity="0" stroke="#000000" fill="#FFFFFF" d="M0.5,0.5 L852.5,0.5 L852.5,399.5 L0.5,399.5 Z" cs="100,100"></path></g><g></g><g></g><g></g><g></g><g></g><g><g transform="translate(0,0)" visibility="visible" opacity="1"><path fill-opacity="1" stroke-opacity="0" fill="#8b6aa1" d=" M392.5575226187769,232.12805520949334 L314.68948627361794,235.9074690886743 A112,93,0,0,1,426.5,137.5 L426.5,202.5 A34,28,0,0,0,392.5575226187769,232.12805520949334 Z" cs="1000,1000"></path><path fill-opacity="1" stroke-opacity="0" fill="#8b6aa1" d=" M392.5575226187769,222.12805520949334 L392.5575226187769,232.12805520949334 L314.68948627361794,235.9074690886743 L314.68948627361794,225.9074690886743 L392.5575226187769,222.12805520949334 Z" cs="1000,1000"></path><path fill-opacity="1" stroke-opacity="0" fill="#8b6aa1" d=" M426.5,127.5 L426.5,137.5 L426.5,202.5 L426.5,192.5 L426.5,127.5 Z" cs="1000,1000"></path><path fill-opacity="1" stroke-opacity="1" stroke-width="2" stroke="#FFFFFF" fill="#ae85c9" d=" M392.5575226187769,222.12805520949334 L314.68948627361794,225.9074690886743 A112,93,0,0,1,426.5,127.5 L426.5,192.5 A34,28,0,0,0,392.5575226187769,222.12805520949334 Z" cs="1000,1000"></path><text visibility="visible" transform="translate(318,145)" text-anchor="end" opacity="1" font-size="11" font-family="Verdana" fill="#000000" y="6"><tspan x="0" y="6">ADMINISTRATIVO: 25.93%</tspan></text><path visibility="visible" stroke="#FFFFFF" stroke-opacity="0.3" fill="none" d="M345.5,156.5 L330.5,145.5 L322.5,145.5" cs="100,100"></path></g><g transform="translate(0,0)" visibility="visible" opacity="1"><path fill-opacity="1" stroke-opacity="0" fill="#3a4c95" d=" M426.5,202.5 L426.5,137.5 A112,93,0,0,1,464.8062560524749,317.8914137330895 L438.12868487307276,256.81139338200546 A34,28,0,0,0,426.5,202.5 Z" cs="1000,1000"></path><path fill-opacity="1" stroke-opacity="0" fill="#3a4c95" d=" M426.5,192.5 L426.5,202.5 L426.5,137.5 L426.5,127.5 L426.5,192.5 Z" cs="1000,1000"></path><path fill-opacity="1" stroke-opacity="0" fill="#3a4c95" d=" M464.8062560524749,307.8914137330895 L464.8062560524749,317.8914137330895 L438.12868487307276,256.81139338200546 L438.12868487307276,246.81139338200543 L464.8062560524749,307.8914137330895 Z" cs="1000,1000"></path><path fill-opacity="1" stroke-opacity="1" stroke-width="2" stroke="#FFFFFF" fill="#495fba" d=" M426.5,192.5 L426.5,127.5 A112,93,0,0,1,464.8062560524749,307.8914137330895 L438.12868487307276,246.81139338200543 A34,28,0,0,0,426.5,192.5 Z" cs="1000,1000"></path><text visibility="visible" transform="translate(569,201)" text-anchor="start" opacity="1" font-size="11" font-family="Verdana" fill="#000000" y="6"><tspan x="0" y="6">ESTUDIANTE: 44.44%</tspan></text><path visibility="visible" stroke="#FFFFFF" stroke-opacity="0.3" fill="none" d="M537.5,204.5 L557.5,201.5 L565.5,201.5" cs="100,100"></path></g><g transform="translate(0,0)" visibility="visible" opacity="1"><path fill-opacity="1" stroke-opacity="0" fill="#baab6a" d=" M438.12868487307276,256.81139338200546 L464.8062560524749,317.8914137330895 A112,93,0,0,1,314.68948627361794,235.9074690886743 L392.5575226187769,232.12805520949334 A34,28,0,0,0,438.12868487307276,256.81139338200546 Z" cs="1000,1000"></path><path fill-opacity="1" stroke-opacity="0" fill="#baab6a" d=" M438.12868487307276,246.81139338200543 L438.12868487307276,256.81139338200546 L464.8062560524749,317.8914137330895 L464.8062560524749,307.8914137330895 L438.12868487307276,246.81139338200543 Z" cs="1000,1000"></path><path fill-opacity="1" stroke-opacity="0" fill="#baab6a" d=" M314.68948627361794,225.9074690886743 L314.68948627361794,235.9074690886743 L392.5575226187769,232.12805520949334 L392.5575226187769,222.12805520949334 L314.68948627361794,225.9074690886743 Z" cs="1000,1000"></path><path fill-opacity="1" stroke-opacity="1" stroke-width="2" stroke="#FFFFFF" fill="#e8d685" d=" M438.12868487307276,246.81139338200543 L464.8062560524749,307.8914137330895 A112,93,0,0,1,314.68948627361794,225.9074690886743 L392.5575226187769,222.12805520949334 A34,28,0,0,0,438.12868487307276,246.81139338200543 Z" cs="1000,1000"></path><text visibility="visible" transform="translate(342,313)" text-anchor="end" opacity="1" font-size="11" font-family="Verdana" fill="#000000" y="6"><tspan x="0" y="6">DOCENTE: 29.63%</tspan></text><path visibility="visible" stroke="#FFFFFF" stroke-opacity="0.3" fill="none" d="M365.5,299.5 L354.5,313.5 L346.5,313.5" cs="100,100"></path></g></g><g></g><g></g><g></g><g></g><g></g><g></g><g><g></g><text font-weight="bold" transform="translate(427,20)" text-anchor="middle" opacity="1" font-size="20" font-family="Verdana" fill="#000000" y="10"><tspan x="0" y="10">Alcance por Tipos</tspan></text></g><g id="balloons"></g><g></g><g></g></svg>