<svg version="1.1" style="position: absolute; width: 853px; height: 400px; left: 0.399994px;"><desc>JavaScript chart by amCharts 3.4.6</desc><g><path stroke-opacity="0" stroke-width="1" fill-opacity="0" stroke="#000000" fill="#FFFFFF" d="M0.5,0.5 L852.5,0.5 L852.5,399.5 L0.5,399.5 Z" cs="100,100"></path></g><g></g><g></g><g></g><g></g><g></g><g><g transform="translate(0,0)" visibility="visible" opacity="1"><path fill-opacity="1" stroke-opacity="0" fill="#baab6a" d=" M426.5,202.5 L426.5,137.5 A112,93,0,1,1,426.3827138957024,137.5000509929514 L426.4643952897668,202.50001535271656 A34,28,0,1,0,426.5,202.5 Z" cs="1000,1000"></path><path fill-opacity="1" stroke-opacity="0" fill="#baab6a" d=" M426.5,192.5 L426.5,202.5 L426.5,137.5 L426.5,127.5 L426.5,192.5 Z" cs="1000,1000"></path><path fill-opacity="1" stroke-opacity="0" fill="#baab6a" d=" M426.3827138957024,127.50005099295142 L426.3827138957024,137.5000509929514 L426.4643952897668,202.50001535271656 L426.4643952897668,192.50001535271656 L426.3827138957024,127.50005099295142 Z" cs="1000,1000"></path><path fill-opacity="1" stroke-opacity="1" stroke-width="1" stroke="#FFFFFF" fill="#e8d685" d=" M426.5,192.5 L426.5,127.5 A112,93,0,1,1,426.3827138957024,127.50005099295142 L426.4643952897668,192.50001535271656 A34,28,0,1,0,426.5,192.5 Z" cs="1000,1000"></path><text visibility="visible" transform="translate(415,331)" text-anchor="end" opacity="1" font-size="11" font-family="Verdana" fill="#000000" y="6"><tspan x="0" y="6">pendiente: 100.00%</tspan></text><path visibility="visible" stroke="#FFFFFF" stroke-opacity="0.3" fill="none" d="M427.5,314.5 L427.5,331.5 L419.5,331.5" cs="100,100"></path></g></g><g></g><g></g><g></g><g></g><g></g><g></g><g><g></g><text font-weight="bold" transform="translate(427,20)" text-anchor="middle" opacity="1" font-size="20" font-family="Verdana" fill="#000000" y="10"><tspan x="0" y="10">Alcance Agrupado</tspan></text></g><g id="balloons"></g><g></g><g></g></svg>