<svg version="1.1" style="position: absolute; width: 841px; height: 400px; left: 0.399994px;"><desc>JavaScript chart by amCharts 3.4.6</desc><g><path stroke-opacity="0" stroke-width="1" fill-opacity="0" stroke="#000000" fill="#FFFFFF" d="M0.5,0.5 L840.5,0.5 L840.5,399.5 L0.5,399.5 Z" cs="100,100"></path></g><g></g><g></g><g></g><g></g><g></g><g><g transform="translate(0,0)" visibility="visible" opacity="1"><path fill-opacity="1" stroke-opacity="0" fill="#baab6a" d=" M420.5,258.5 L420.5,323.5 A112,93,0,0,1,420.5,137.5 L420.5,202.5 A34,28,0,0,0,420.5,258.5 Z" cs="1000,1000"></path><path fill-opacity="1" stroke-opacity="0" fill="#baab6a" d=" M420.5,248.5 L420.5,258.5 L420.5,323.5 L420.5,313.5 L420.5,248.5 Z" cs="1000,1000"></path><path fill-opacity="1" stroke-opacity="0" fill="#baab6a" d=" M420.5,127.5 L420.5,137.5 L420.5,202.5 L420.5,192.5 L420.5,127.5 Z" cs="1000,1000"></path><path fill-opacity="1" stroke-opacity="1" stroke-width="1" stroke="#FFFFFF" fill="#e8d685" d=" M420.5,248.5 L420.5,313.5 A112,93,0,0,1,420.5,127.5 L420.5,192.5 A34,28,0,0,0,420.5,248.5 Z" cs="1000,1000"></path><text visibility="visible" transform="translate(276,221)" text-anchor="end" opacity="1" font-size="11" font-family="Verdana" fill="#000000" y="6"><tspan x="0" y="6">q2: 50.00%</tspan></text><path visibility="visible" stroke="#FFFFFF" stroke-opacity="0.3" fill="none" d="M308.5,221.5 L288.5,221.5 L280.5,221.5" cs="100,100"></path></g><g transform="translate(0,0)" visibility="visible" opacity="1"><path fill-opacity="1" stroke-opacity="0" fill="#3a4c95" d=" M420.5,202.5 L420.5,137.5 A112,93,0,0,1,420.5,323.5 L420.5,258.5 A34,28,0,0,0,420.5,202.5 Z" cs="1000,1000"></path><path fill-opacity="1" stroke-opacity="0" fill="#3a4c95" d=" M420.5,192.5 L420.5,202.5 L420.5,137.5 L420.5,127.5 L420.5,192.5 Z" cs="1000,1000"></path><path fill-opacity="1" stroke-opacity="0" fill="#3a4c95" d=" M420.5,313.5 L420.5,323.5 L420.5,258.5 L420.5,248.5 L420.5,313.5 Z" cs="1000,1000"></path><path fill-opacity="1" stroke-opacity="1" stroke-width="1" stroke="#FFFFFF" fill="#495fba" d=" M420.5,192.5 L420.5,127.5 A112,93,0,0,1,420.5,313.5 L420.5,248.5 A34,28,0,0,0,420.5,192.5 Z" cs="1000,1000"></path><text visibility="visible" transform="translate(565,221)" text-anchor="start" opacity="1" font-size="11" font-family="Verdana" fill="#000000" y="6"><tspan x="0" y="6">q1: 50.00%</tspan></text><path visibility="visible" stroke="#FFFFFF" stroke-opacity="0.3" fill="none" d="M533.5,221.5 L553.5,221.5 L561.5,221.5" cs="100,100"></path></g></g><g></g><g></g><g></g><g></g><g></g><g></g><g><g></g><text font-weight="bold" transform="translate(421,20)" text-anchor="middle" opacity="1" font-size="20" font-family="Verdana" fill="#000000" y="10"><tspan x="0" y="10">Frecuencia por Opción</tspan></text></g><g id="balloons"></g><g></g><g></g></svg>