<svg version="1.1" style="position: absolute; width: 841px; height: 400px; left: 0.399994px;"><desc>JavaScript chart by amCharts 3.4.6</desc><g><path stroke-opacity="0" stroke-width="1" fill-opacity="0" stroke="#000000" fill="#FFFFFF" d="M0.5,0.5 L840.5,0.5 L840.5,399.5 L0.5,399.5 Z" cs="100,100"></path></g><g></g><g></g><g></g><g></g><g></g><g><g transform="translate(0,0)" visibility="visible" opacity="1"><path fill-opacity="1" stroke-opacity="0" fill="#8b6aa1" d=" M386.5,230.5 L308.5,230.50000000000003 A112,93,0,0,1,420.5,137.5 L420.5,202.5 A34,28,0,0,0,386.5,230.5 Z" cs="1000,1000"></path><path fill-opacity="1" stroke-opacity="0" fill="#8b6aa1" d=" M386.5,220.5 L386.5,230.5 L308.5,230.50000000000003 L308.5,220.50000000000003 L386.5,220.5 Z" cs="1000,1000"></path><path fill-opacity="1" stroke-opacity="0" fill="#8b6aa1" d=" M420.5,127.5 L420.5,137.5 L420.5,202.5 L420.5,192.5 L420.5,127.5 Z" cs="1000,1000"></path><path fill-opacity="1" stroke-opacity="1" stroke-width="1" stroke="#FFFFFF" fill="#ae85c9" d=" M386.5,220.5 L308.5,220.50000000000003 A112,93,0,0,1,420.5,127.5 L420.5,192.5 A34,28,0,0,0,386.5,220.5 Z" cs="1000,1000"></path><text visibility="visible" transform="translate(315,143)" text-anchor="end" opacity="1" font-size="11" font-family="Verdana" fill="#000000" y="6"><tspan x="0" y="6">op 3: 25.00%</tspan></text><path visibility="visible" stroke="#FFFFFF" stroke-opacity="0.3" fill="none" d="M341.5,154.5 L327.5,143.5 L319.5,143.5" cs="100,100"></path></g><g transform="translate(0,0)" visibility="visible" opacity="1"><path fill-opacity="1" stroke-opacity="0" fill="#3a4c95" d=" M420.5,202.5 L420.5,137.5 A112,93,0,0,1,532.5,230.5 L454.5,230.5 A34,28,0,0,0,420.5,202.5 Z" cs="1000,1000"></path><path fill-opacity="1" stroke-opacity="0" fill="#3a4c95" d=" M420.5,192.5 L420.5,202.5 L420.5,137.5 L420.5,127.5 L420.5,192.5 Z" cs="1000,1000"></path><path fill-opacity="1" stroke-opacity="0" fill="#3a4c95" d=" M532.5,220.5 L532.5,230.5 L454.5,230.5 L454.5,220.5 L532.5,220.5 Z" cs="1000,1000"></path><path fill-opacity="1" stroke-opacity="1" stroke-width="1" stroke="#FFFFFF" fill="#495fba" d=" M420.5,192.5 L420.5,127.5 A112,93,0,0,1,532.5,220.5 L454.5,220.5 A34,28,0,0,0,420.5,192.5 Z" cs="1000,1000"></path><text visibility="visible" transform="translate(526,143)" text-anchor="start" opacity="1" font-size="11" font-family="Verdana" fill="#000000" y="6"><tspan x="0" y="6">op 1: 25.00%</tspan></text><path visibility="visible" stroke="#FFFFFF" stroke-opacity="0.3" fill="none" d="M500.5,154.5 L514.5,143.5 L522.5,143.5" cs="100,100"></path></g><g transform="translate(0,0)" visibility="visible" opacity="1"><path fill-opacity="1" stroke-opacity="0" fill="#baab6a" d=" M454.5,230.5 L532.5,230.5 A112,93,0,0,1,308.5,230.50000000000003 L386.5,230.5 A34,28,0,0,0,454.5,230.5 Z" cs="1000,1000"></path><path fill-opacity="1" stroke-opacity="0" fill="#baab6a" d=" M454.5,220.5 L454.5,230.5 L532.5,230.5 L532.5,220.5 L454.5,220.5 Z" cs="1000,1000"></path><path fill-opacity="1" stroke-opacity="0" fill="#baab6a" d=" M308.5,220.50000000000003 L308.5,230.50000000000003 L386.5,230.5 L386.5,220.5 L308.5,220.50000000000003 Z" cs="1000,1000"></path><path fill-opacity="1" stroke-opacity="1" stroke-width="1" stroke="#FFFFFF" fill="#e8d685" d=" M454.5,220.5 L532.5,220.5 A112,93,0,0,1,308.5,220.50000000000003 L386.5,220.5 A34,28,0,0,0,454.5,220.5 Z" cs="1000,1000"></path><text visibility="visible" transform="translate(409,331)" text-anchor="end" opacity="1" font-size="11" font-family="Verdana" fill="#000000" y="6"><tspan x="0" y="6">op 2: 50.00%</tspan></text><path visibility="visible" stroke="#FFFFFF" stroke-opacity="0.3" fill="none" d="M421.5,314.5 L421.5,331.5 L413.5,331.5" cs="100,100"></path></g></g><g></g><g></g><g></g><g></g><g></g><g></g><g><g></g><text font-weight="bold" transform="translate(421,20)" text-anchor="middle" opacity="1" font-size="20" font-family="Verdana" fill="#000000" y="10"><tspan x="0" y="10">Frecuencia por Opción</tspan></text></g><g id="balloons"></g><g></g><g></g></svg>